<?xml version="1.0" encoding="UTF-8" standalone="no" ?>
<!DOCTYPE svg PUBLIC "-//W3C//DTD SVG 1.1//EN" "http://www.w3.org/Graphics/SVG/1.1/DTD/svg11.dtd">
<svg xmlns="http://www.w3.org/2000/svg" xmlns:xlink="http://www.w3.org/1999/xlink" version="1.1" width="235" height="235" viewBox="0 0 235 235" xml:space="preserve">
<desc>Created with Fabric.js 4.6.0</desc>
<defs>
</defs>
<g transform="matrix(0.26 0 0 0.26 156.11 150.47)" id="2I4jQxs7qatj_kkguP2Qj"  >
<g style="" vector-effect="non-scaling-stroke"   >
		<g transform="matrix(1 0 0 1 -140.89 0)" id="YRDSi9_cZ0AJFuOM5cz05"  >
<path style="stroke: none; stroke-width: 1; stroke-dasharray: none; stroke-linecap: butt; stroke-dashoffset: 0; stroke-linejoin: miter; stroke-miterlimit: 4; fill: rgb(253,120,173); fill-rule: nonzero; opacity: 1;" vector-effect="non-scaling-stroke"  transform=" translate(-159.11, -300)" d="M 270.158 535.534 C 278.651 544.045 278.651 557.838 270.14000000000004 566.365 C 261.63000000000005 574.8580000000001 247.81900000000005 574.876 239.32600000000005 566.365 L 9.445 336.476 C 0.9250000000000007 327.965 0.9429999999999996 314.163 9.445 305.658 C 17.955 297.13 31.757 297.13 40.268 305.64000000000004 L 270.158 535.534 z M 178.492 48.673 L 165.993 61.171 L 278.115 173.294 L 290.61400000000003 160.79600000000002 L 178.492 48.673 z M 203.048 27.258 L 190.55 39.756 L 302.664 151.87900000000002 L 315.157 139.38000000000002 L 203.048 27.258 z" stroke-linecap="round" />
</g>
		<g transform="matrix(1 0 0 1 0 -0.73)" id="eJAcTGF36W5ESGEWmd8aV"  >
<path style="stroke: none; stroke-width: 1; stroke-dasharray: none; stroke-linecap: butt; stroke-dashoffset: 0; stroke-linejoin: miter; stroke-miterlimit: 4; fill: rgb(98,109,209); fill-rule: nonzero; opacity: 1;" vector-effect="non-scaling-stroke"  transform=" translate(-300, -299.27)" d="M 226.99 97.171 L 219.977 90.158 C 225.28300000000002 88.361 230.68200000000002 86.765 236.16 85.37 L 243.484 92.69500000000001 C 237.899 93.969 232.398 95.464 226.99 97.171 z M 90.978 228.373 C 110.981 172.20999999999998 154.035 126.89399999999999 208.707 103.88499999999999 L 204.138 99.31599999999999 L 201.989 97.16699999999999 C 199.514 98.25699999999999 197.059 99.37999999999998 194.632 100.55799999999999 C 144.00400000000002 125.11599999999999 104.12400000000001 168.468 84.092 221.487 L 64.38 201.774 L 58.583 195.977 C 45.178 182.572 23.443999999999996 182.572 10.04 195.977 C -3.3470000000000013 209.364 -3.3470000000000013 231.098 10.04 244.50300000000001 L 43.205 277.66700000000003 L 69.991 304.45200000000006 C 70.262 316.16800000000006 71.451 327.6600000000001 73.489 338.86100000000005 L 85.012 350.38400000000007 C 82.063 338.5250000000001 80.117 326.2750000000001 79.267 313.72800000000007 L 174.69400000000002 409.15200000000004 C 188.08100000000002 422.53900000000004 209.81500000000003 422.53900000000004 223.22000000000003 409.15200000000004 C 236.62500000000003 395.75600000000003 236.62500000000003 374.02200000000005 223.22000000000003 360.6170000000001 L 90.978 228.373 z M 589.966 313.792 L 496.819 220.64199999999997 C 485.42 190.84899999999996 467.74600000000004 164.13899999999995 445.41700000000003 142.13499999999996 C 405.552 102.84899999999996 350.87100000000004 78.56299999999996 290.62300000000005 78.56299999999996 C 279.165 78.56299999999996 267.91 79.44199999999996 256.91800000000006 81.13399999999996 L 264.76500000000004 88.98199999999996 C 273.24300000000005 87.94599999999996 281.869 87.40199999999996 290.62200000000007 87.40199999999996 C 347.20400000000006 87.40199999999996 398.6770000000001 109.70399999999995 436.71600000000007 145.98199999999997 C 453.98600000000005 162.45199999999997 468.48300000000006 181.80599999999998 479.43500000000006 203.25799999999998 L 485.86500000000007 209.688 L 452.10400000000004 175.926 C 438.708 162.53799999999998 416.97400000000005 162.521 403.57800000000003 175.926 C 390.182 189.313 390.182 211.047 403.57800000000003 224.452 L 501.23800000000006 322.127 C 492.03400000000005 407.427 432.0160000000001 477.713 352.1600000000001 502.005 C 332.6760000000001 507.933 312.01700000000005 511.133 290.62200000000007 511.133 C 273.00300000000004 511.133 255.88500000000008 508.957 239.50800000000007 504.88399999999996 L 251.03200000000007 516.4079999999999 C 263.88000000000005 518.7449999999999 277.11000000000007 519.9709999999999 290.62200000000007 519.9709999999999 C 319.88400000000007 519.9709999999999 347.8280000000001 514.2309999999999 373.4050000000001 503.8399999999999 C 428.83400000000006 481.3219999999999 473.1170000000001 436.9069999999999 495.4570000000001 381.3789999999999 C 500.7940000000001 368.1149999999999 504.8750000000001 354.2199999999999 507.5600000000001 339.8359999999999 C 508.16500000000013 336.5969999999999 508.6950000000001 333.3329999999999 509.1560000000001 330.0459999999999 L 507.4160000000001 328.30599999999987 L 541.4230000000001 362.31799999999987 C 554.8360000000001 375.70499999999987 576.5530000000001 375.70499999999987 589.9660000000001 362.31799999999987 C 603.345 348.913 603.345 327.18 589.966 313.792 z" stroke-linecap="round" />
</g>
		<g transform="matrix(1 0 0 1 0.01 3.21)" id="CwXAcZK16W8Gh8xG8d0Ve"  >
<path style="stroke: none; stroke-width: 1; stroke-dasharray: none; stroke-linecap: butt; stroke-dashoffset: 0; stroke-linejoin: miter; stroke-miterlimit: 4; fill: rgb(50,255,176); fill-rule: nonzero; opacity: 1;" vector-effect="non-scaling-stroke"  transform=" translate(-300.01, -303.21)" d="M 73.489 338.861 L 42.70100000000001 308.073 C 42.14800000000001 297.909 42.32000000000001 287.74899999999997 43.205000000000005 277.667 L 69.99100000000001 304.452 C 70.263 316.168 71.452 327.66 73.489 338.861 z M 68.803 422.091 C 83.10499999999999 474.538 130.404 507.682 180.76 507.797 L 58.959999999999994 385.992 L 68.803 422.091 z M 546.377 160.674 C 531.203 123.982 485.17999999999995 111.94900000000001 454.00299999999993 136.506 C 451.2819999999999 138.645 448.40599999999995 140.52 445.4169999999999 142.135 C 467.7459999999999 164.13899999999998 485.4199999999999 190.849 496.8189999999999 220.642 L 547.5269999999999 271.351 C 561.259 236.051 561.135 196.401 546.377 160.674 z M 403.578 175.926 C 416.974 162.521 438.70799999999997 162.53799999999998 452.104 175.926 L 479.435 203.25699999999998 C 468.483 181.80499999999998 453.986 162.45099999999996 436.716 145.98099999999997 C 424.538 150.24099999999996 411.141 150.51599999999996 398.52 146.42299999999997 C 371.09999999999997 137.52299999999997 328.542 124.09599999999998 286.788 111.00799999999998 L 315.15700000000004 139.38 L 302.66400000000004 151.879 L 252.15200000000004 101.363 C 244.26200000000006 99.873 236.33900000000006 98.967 228.43900000000005 98.62 L 290.61400000000003 160.79500000000002 L 278.115 173.293 L 208.70600000000002 103.884 C 154.03400000000002 126.893 110.97900000000001 172.209 90.97700000000002 228.372 L 223.22 360.617 C 236.625 374.022 236.625 395.75600000000003 223.22 409.15200000000004 C 209.815 422.53900000000004 188.081 422.53900000000004 174.694 409.15200000000004 L 79.26699999999998 313.72800000000007 C 80.11699999999998 326.2750000000001 82.06299999999999 338.5250000000001 85.01199999999999 350.38400000000007 L 231.022 496.3980000000001 C 260.92199999999997 482.20900000000006 295.46 481.4380000000001 325.96299999999997 494.2660000000001 C 334.611 497.9070000000001 343.388 500.4510000000001 352.159 502.0040000000001 C 432.015 477.7120000000001 492.033 407.42600000000004 501.23699999999997 322.1260000000001 L 403.577 224.45100000000008 C 390.183 211.047 390.183 189.314 403.578 175.926 z M 194.632 100.557 C 152.45 107.297 113.38000000000001 130.04500000000002 86.64500000000001 165.827 L 85.022 168.002 C 77.042 178.68900000000002 70.164 190.006 64.381 201.77300000000002 L 84.092 221.485 C 104.124 168.467 144.003 125.115 194.632 100.557 z M 373.405 503.841 C 431.929 503.657 485.39 460.54 493.38 397.759 L 495.457 381.38 C 473.117 436.908 428.834 481.323 373.405 503.841 z" stroke-linecap="round" />
</g>
</g>
</g>
<g transform="matrix(0.14 0 0 0.14 50.73 85.49)" id="I7lzj4ZLN7WbUbpX0I1j-"  >
<g style="" vector-effect="non-scaling-stroke"   >
		<g transform="matrix(1 0 0 1 -211.03 -196.49)"  >
<path style="stroke: none; stroke-width: 1; stroke-dasharray: none; stroke-linecap: butt; stroke-dashoffset: 0; stroke-linejoin: miter; stroke-miterlimit: 4; fill: rgb(95,88,165); fill-rule: nonzero; opacity: 1;" vector-effect="non-scaling-stroke"  transform=" translate(-88.97, -103.51)" d="M 106.363 190.781 C 141.548 183.808 169.266 156.091 176.239 120.905 C 177.354 115.28 177.943 109.46600000000001 177.943 103.51400000000001 C 177.943 94.918 176.72 86.60900000000001 174.44600000000003 78.74600000000001 C 171.44600000000003 68.373 166.61100000000002 58.77900000000001 160.312 50.34100000000001 C 157.21800000000002 46.19700000000001 153.77 42.33500000000001 150.01600000000002 38.79200000000001 C 134.08400000000003 23.76000000000001 112.60600000000002 14.542000000000009 88.97200000000002 14.542000000000009 C 39.834 14.543 0 54.376 0 103.514 C 0 127.14699999999999 9.218 148.625 24.25 164.558 C 27.792 168.31199999999998 31.655 171.761 35.799 174.85399999999998 C 44.237 181.153 53.831 185.988 64.20400000000001 188.988 C 72.06700000000001 191.262 80.376 192.485 88.97200000000001 192.485 C 94.924 192.485 100.738 191.896 106.363 190.781 z M 50.264 120.671 C 47.935 115.42500000000001 46.631 109.623 46.631 103.51400000000001 C 46.631 80.13000000000001 65.587 61.17400000000001 88.971 61.17400000000001 C 95.08 61.17400000000001 100.882 62.47800000000001 106.128 64.807 C 114.941 68.71900000000001 122.164 75.548 126.58 84.072 C 129.597 89.896 131.311 96.503 131.311 103.51400000000001 C 131.311 126.89800000000001 112.35400000000001 145.854 88.971 145.854 C 81.96000000000001 145.854 75.35300000000001 144.139 69.529 141.12300000000002 C 61.005 136.707 54.176 129.484 50.264 120.671 z" stroke-linecap="round" />
</g>
		<g transform="matrix(1 0 0 1 159.24 163.56)"  >
<path style="stroke: none; stroke-width: 1; stroke-dasharray: none; stroke-linecap: butt; stroke-dashoffset: 0; stroke-linejoin: miter; stroke-miterlimit: 4; fill: rgb(253,212,2); fill-rule: nonzero; opacity: 1;" vector-effect="non-scaling-stroke"  transform=" translate(-459.24, -463.56)" d="M 600 341.654 L 318.48 341.654 L 459.24 585.457 z" stroke-linecap="round" />
</g>
		<g transform="matrix(1 0 0 1 -39.95 -25.41)"  >
<path style="stroke: none; stroke-width: 1; stroke-dasharray: none; stroke-linecap: butt; stroke-dashoffset: 0; stroke-linejoin: miter; stroke-miterlimit: 4; fill: rgb(59,194,228); fill-rule: nonzero; opacity: 1;" vector-effect="non-scaling-stroke"  transform=" translate(-260.05, -274.59)" d="M 150.015 38.793 C 161.492 33.443 173.277 28.969 185.271 25.381999999999998 L 160.31099999999998 50.342 C 157.218 46.197 153.769 42.335 150.015 38.793 z M 24.25 164.558 C 18.9 176.035 14.426 187.82 10.839 199.814 L 35.799 174.85399999999998 C 31.655 171.76 27.792 168.312 24.25 164.558 z M 106.128 64.807 C 95.629 72.525 85.576 81.124 76.078 90.622 C 66.58000000000001 100.12 57.981 110.173 50.263000000000005 120.672 C 54.175000000000004 129.484 61.004000000000005 136.708 69.528 141.124 L 126.57900000000001 84.073 C 122.165 75.548 114.941 68.719 106.128 64.807 z M 176.239 120.905 L 281.692 15.452 C 267.053 14.237 252.342 14.231 237.70600000000002 15.486 L 174.44500000000002 78.747 C 176.71900000000002 86.61 177.942 94.919 177.942 103.515 C 177.943 109.466 177.353 115.28 176.239 120.905 z M 88.971 192.485 C 80.375 192.485 72.066 191.262 64.203 188.988 L 0.943 252.249 C -0.31100000000000005 266.884 -0.30500000000000005 281.596 0.9089999999999999 296.235 L 106.363 190.781 C 100.738 191.896 94.924 192.485 88.971 192.485 z M 318.389 21.294 L 6.751 332.932 C 9.374 344.372 12.723 355.658 16.909 366.726 L 352.184 31.451 C 341.115 27.265 329.829 23.916 318.389 21.294 z M 381.636 44.537 L 29.994 396.179 C 34.93 405.51 40.674 414.503 46.824 423.30199999999996 L 408.759 61.367 C 399.96 55.216 390.967 49.472 381.636 44.537 z M 444.019 90.622 C 440.31 86.912 436.348 83.627 432.476 80.188 L 65.645 447.019 C 69.084 450.891 72.369 454.85200000000003 76.079 458.562 C 79.78899999999999 462.272 83.75 465.55600000000004 87.621 468.995 L 454.452 102.16399999999999 C 451.013 98.292 447.728 94.331 444.019 90.622 z M 473.274 125.881 L 111.339 487.817 C 120.138 493.967 129.131 499.711 138.462 504.646 L 490.104 153.00400000000002 C 485.168 143.673 479.424 134.68 473.274 125.881 z M 513.347 216.251 C 510.724 204.812 507.375 193.525 503.18899999999996 182.457 L 343.992 341.654 L 387.944 341.654 L 513.347 216.251 z M 167.914 517.732 C 178.982 521.918 190.26899999999998 525.2669999999999 201.70799999999997 527.89 L 343.905 385.693 L 327.818 357.829 L 167.914 517.732 z M 519.155 296.934 C 520.409 282.29900000000004 520.403 267.58700000000005 519.189 252.94800000000004 L 430.484 341.65400000000005 L 474.436 341.65400000000005 L 519.155 296.934 z M 238.406 533.732 C 253.044 534.947 267.75600000000003 534.953 282.391 533.698 L 375.563 440.52599999999995 L 359.476 412.662 L 238.406 533.732 z M 334.825 523.802 C 359.251 516.4970000000001 382.815 505.534 404.655 490.913 L 391.13399999999996 467.493 L 334.825 523.802 z" stroke-linecap="round" />
</g>
</g>
</g>
<g transform="matrix(0.36 0 0 0.36 114.38 100.22)" id="_85Zlb2RdMNVghxXuL3dn"  >
<g style="" vector-effect="non-scaling-stroke"   >
		<g transform="matrix(1 0 0 1 -259.29 -189.2)" id="ezV1c4c31mS8dBd5nMySV"  >
<path style="stroke: none; stroke-width: 1; stroke-dasharray: none; stroke-linecap: butt; stroke-dashoffset: 0; stroke-linejoin: miter; stroke-miterlimit: 4; fill: rgb(244,79,71); fill-rule: nonzero; opacity: 1;" vector-effect="non-scaling-stroke"  transform=" translate(-40.71, -110.8)" d="M 54.153 110.79 C 54.153 111.367 54.105 111.932 54.034 112.49000000000001 C 53.952 113.135 53.824 113.763 53.653999999999996 114.37700000000001 C 53.456999999999994 115.08900000000001 53.202999999999996 115.77700000000002 52.897 116.43700000000001 C 51.292 119.89500000000001 48.272 122.56300000000002 44.577999999999996 123.67600000000002 C 43.888 123.88400000000001 43.172 124.03000000000002 42.44 124.12500000000001 C 41.873999999999995 124.19800000000001 41.3 124.24900000000001 40.714 124.24900000000001 C 40.635 124.24900000000001 40.559999999999995 124.239 40.482 124.23700000000001 C 33.176 124.111 27.266 118.135 27.266 110.79100000000001 C 27.266 108.80300000000001 27.712 106.92000000000002 28.49 105.22000000000001 C 29.389999999999997 103.25400000000002 30.747 101.54400000000001 32.429 100.22300000000001 C 34.103 98.90800000000002 36.093 97.98200000000001 38.267 97.58000000000001 C 39.062000000000005 97.433 39.877 97.34600000000002 40.714000000000006 97.34600000000002 C 41.98500000000001 97.34600000000002 43.211000000000006 97.53500000000001 44.377 97.86700000000002 C 50.009 99.467 54.153 104.648 54.153 110.79 z" stroke-linecap="round" />
</g>
		<g transform="matrix(1 0 0 1 -198.24 -189.2)" id="6sMcvDAWF9OIHmtdqflBO"  >
<path style="stroke: none; stroke-width: 1; stroke-dasharray: none; stroke-linecap: butt; stroke-dashoffset: 0; stroke-linejoin: miter; stroke-miterlimit: 4; fill: rgb(247,247,55); fill-rule: nonzero; opacity: 1;" vector-effect="non-scaling-stroke"  transform=" translate(-101.76, -110.8)" d="M 115.216 110.79 C 115.216 111.366 115.16799999999999 111.929 115.097 112.485 C 115.015 113.129 114.887 113.757 114.717 114.369 C 114.52 115.081 114.267 115.769 113.96 116.429 C 112.351 119.896 109.317 122.569 105.606 123.679 C 104.916 123.886 104.201 124.032 103.469 124.125 C 102.90599999999999 124.197 102.335 124.247 101.753 124.247 C 101.671 124.247 101.593 124.236 101.512 124.235 C 94.201 124.105 88.295 118.131 88.295 110.789 C 88.295 103.375 94.33 97.345 101.753 97.345 C 109.176 97.345 115.216 103.376 115.216 110.79 z" stroke-linecap="round" />
</g>
		<g transform="matrix(1 0 0 1 -137.2 -189.2)" id="nL_ZtZg-sd1o1ACa5ZXkV"  >
<path style="stroke: none; stroke-width: 1; stroke-dasharray: none; stroke-linecap: butt; stroke-dashoffset: 0; stroke-linejoin: miter; stroke-miterlimit: 4; fill: rgb(120,244,229); fill-rule: nonzero; opacity: 1;" vector-effect="non-scaling-stroke"  transform=" translate(-162.8, -110.8)" d="M 176.255 110.79 C 176.255 111.366 176.207 111.93 176.136 112.48700000000001 C 176.054 113.132 175.926 113.76 175.756 114.373 C 175.559 115.08500000000001 175.305 115.772 174.999 116.432 C 173.393 119.892 170.37 122.561 166.668 123.675 C 165.979 123.883 165.263 124.029 164.532 124.12299999999999 C 163.96200000000002 124.19699999999999 163.38600000000002 124.24799999999999 162.79600000000002 124.24799999999999 C 162.72000000000003 124.24799999999999 162.64800000000002 124.23799999999999 162.57200000000003 124.237 C 155.26200000000003 124.115 149.35100000000003 118.137 149.35100000000003 110.78999999999999 C 149.35100000000003 103.37599999999999 155.38200000000003 97.34599999999999 162.79500000000002 97.34599999999999 C 170.22 97.346 176.255 103.376 176.255 110.79 z" stroke-linecap="round" />
</g>
		<g transform="matrix(1 0 0 1 9 43.02)" id="TJj3-ZsMm46axDOcS7zbb"  >
<path style="stroke: none; stroke-width: 1; stroke-dasharray: none; stroke-linecap: butt; stroke-dashoffset: 0; stroke-linejoin: miter; stroke-miterlimit: 4; fill: rgb(242,242,242); fill-rule: nonzero; opacity: 1;" vector-effect="non-scaling-stroke"  transform=" translate(-309, -343.03)" d="M 596.387 164.886 L 596.387 494.99199999999996 C 596.387 509.424 582.558 521.165 565.5569999999999 521.165 L 50.502 521.165 C 37.277 521.165 25.974000000000004 514.059 21.605000000000004 504.109 C 25.574000000000005 505.493 29.903000000000006 506.262 34.438 506.262 L 549.497 506.262 C 568.487 506.262 583.935 492.898 583.935 476.476 L 583.935 164.886 L 596.387 164.886 z" stroke-linecap="round" />
</g>
		<g transform="matrix(1 0 0 1 0 -179.95)" id="UgPmh36MVxDwhHsI7t8p2"  >
<path style="stroke: none; stroke-width: 1; stroke-dasharray: none; stroke-linecap: butt; stroke-dashoffset: 0; stroke-linejoin: miter; stroke-miterlimit: 4; fill: rgb(170,170,170); fill-rule: nonzero; opacity: 1;" vector-effect="non-scaling-stroke"  transform=" translate(-300, -120.05)" d="M 596.387 123.519 L 596.387 161.274 L 583.9359999999999 161.274 L 583.9359999999999 105.00399999999999 C 583.9359999999999 104.13799999999999 583.8829999999999 103.28299999999999 583.799 102.43599999999999 C 591.427 107.205 596.387 114.878 596.387 123.519 z M 579.82 100.326 C 580.144 101.845 580.3230000000001 103.407 580.3230000000001 105.00399999999999 L 580.3230000000001 142.759 L 3.613 142.759 L 3.613 105.00399999999999 C 3.613 90.576 17.443 78.835 34.439 78.835 L 549.4979999999999 78.835 C 562.718 78.835 574.0189999999999 85.939 578.39 95.88499999999999 C 578.709 96.61299999999999 578.989 97.35699999999999 579.232 98.11399999999999 C 579.465 98.839 579.66 99.577 579.82 100.326 z M 56.994 115.871 C 57.176 115.28999999999999 57.321 114.69399999999999 57.44 114.088 C 57.556 113.50099999999999 57.637 112.901 57.69 112.29499999999999 C 57.733 111.79799999999999 57.766 111.29799999999999 57.766 110.79099999999998 C 57.766 105.32999999999998 55.176 100.47099999999998 51.171 97.34699999999998 C 50.319 96.68199999999997 49.403999999999996 96.09699999999998 48.434 95.60199999999998 C 47.217999999999996 94.97999999999998 45.919999999999995 94.50199999999998 44.558 94.18699999999997 C 43.32 93.89999999999996 42.037 93.73299999999998 40.714 93.73299999999998 C 34.103 93.73299999999998 28.371 97.52099999999997 25.538999999999998 103.03099999999998 C 24.88 104.31299999999997 24.375999999999998 105.68599999999998 24.057999999999996 107.12999999999998 C 23.806999999999995 108.27299999999998 23.666999999999994 109.45699999999998 23.657999999999998 110.67199999999998 C 23.657999999999998 110.71199999999999 23.651999999999997 110.75099999999998 23.651999999999997 110.79099999999998 C 23.651999999999997 119.88999999999999 30.810999999999996 127.32899999999998 39.787 127.81399999999998 C 40.096 127.83099999999997 40.400999999999996 127.86099999999998 40.713 127.86099999999998 C 41.01 127.86099999999998 41.299 127.83199999999998 41.592 127.81699999999998 C 42.217999999999996 127.78499999999998 42.833999999999996 127.71999999999998 43.440999999999995 127.62199999999999 C 49.858 126.581 55.092 121.964 56.994 115.871 z M 118.056 115.873 C 118.238 115.29100000000001 118.383 114.696 118.502 114.09 C 118.618 113.50200000000001 118.699 112.903 118.752 112.296 C 118.795 111.799 118.82799999999999 111.299 118.82799999999999 110.79100000000001 C 118.82799999999999 105.33000000000001 116.23499999999999 100.471 112.22399999999999 97.34700000000001 C 111.33399999999999 96.653 110.374 96.049 109.35499999999999 95.54 C 107.06199999999998 94.394 104.48599999999999 93.733 101.752 93.733 C 99.02 93.733 96.44399999999999 94.394 94.152 95.54 C 93.134 96.049 92.174 96.653 91.284 97.34700000000001 C 87.274 100.47200000000001 84.68100000000001 105.33000000000001 84.68100000000001 110.79100000000001 C 84.68100000000001 119.88700000000001 91.84000000000002 127.32400000000001 100.81600000000002 127.81400000000001 C 101.12800000000001 127.831 101.43600000000002 127.861 101.75200000000002 127.861 C 102.04600000000002 127.861 102.33200000000002 127.83200000000001 102.62200000000003 127.81700000000001 C 103.24800000000003 127.78500000000001 103.86400000000003 127.721 104.47100000000003 127.62400000000001 C 110.903 126.587 116.15 121.969 118.056 115.873 z M 179.095 115.872 C 179.277 115.291 179.422 114.695 179.541 114.089 C 179.657 113.502 179.738 112.902 179.791 112.295 C 179.834 111.798 179.867 111.298 179.867 110.79 C 179.867 105.32900000000001 177.274 100.47 173.26399999999998 97.346 C 172.374 96.652 171.414 96.048 170.396 95.539 C 168.10399999999998 94.393 165.528 93.732 162.796 93.732 C 160.06699999999998 93.732 157.493 94.393 155.203 95.539 C 154.186 96.048 153.227 96.652 152.338 97.346 C 148.331 100.471 145.739 105.32900000000001 145.739 110.79 C 145.739 119.89200000000001 152.903 127.33200000000001 161.87900000000002 127.81400000000001 C 162.18400000000003 127.83000000000001 162.48600000000002 127.86000000000001 162.79600000000002 127.86000000000001 C 163.09600000000003 127.86000000000001 163.389 127.83000000000001 163.68500000000003 127.81500000000001 C 164.31100000000004 127.78200000000001 164.92700000000002 127.71800000000002 165.53300000000004 127.61900000000001 C 171.955 126.578 177.191 121.962 179.095 115.872 z" stroke-linecap="round" />
</g>
		<g transform="matrix(1 0 0 1 0 0)" id="z3Y3bj8fmv-EVRZrpRrna"  >
<path style="stroke: none; stroke-width: 1; stroke-dasharray: none; stroke-linecap: butt; stroke-dashoffset: 0; stroke-linejoin: miter; stroke-miterlimit: 4; fill: rgb(63,63,63); fill-rule: nonzero; opacity: 1;" vector-effect="non-scaling-stroke"  transform=" translate(-300, -300)" d="M 582.913 97.808 C 579.181 84.852 565.618 75.22300000000001 549.4970000000001 75.22300000000001 L 34.438 75.22300000000001 C 15.448 75.223 0 88.582 0 105.004 L 0 476.47700000000003 C 0 487.427 6.874 497.011 17.082 502.187 C 20.814 515.145 34.381 524.778 50.503 524.778 L 565.557 524.778 C 584.547 524.778 600 511.415 600 494.993 L 600 123.519 C 600 112.567 593.123 102.983 582.913 97.808 z M 596.387 494.992 C 596.387 509.42400000000004 582.558 521.165 565.5569999999999 521.165 L 50.502 521.165 C 37.277 521.165 25.974000000000004 514.059 21.605000000000004 504.109 C 25.574000000000005 505.493 29.903000000000006 506.262 34.438 506.262 L 549.497 506.262 C 568.487 506.262 583.935 492.898 583.935 476.476 L 583.935 164.886 L 596.386 164.886 L 596.386 494.992 z M 3.613 476.477 L 3.613 146.371 L 580.3230000000001 146.371 L 580.3230000000001 476.476 C 580.3230000000001 490.908 566.493 502.65 549.4970000000001 502.65 L 34.438 502.65 C 29.293000000000003 502.65 24.443000000000005 501.56899999999996 20.174000000000003 499.66799999999995 C 19.486000000000004 499.36199999999997 18.813000000000002 499.03499999999997 18.157000000000004 498.68799999999993 C 17.486000000000004 498.33199999999994 16.831000000000003 497.9559999999999 16.195000000000004 497.55799999999994 C 8.571 492.788 3.613 485.115 3.613 476.477 z M 3.613 105.004 C 3.613 90.57600000000001 17.443 78.83500000000001 34.439 78.83500000000001 L 549.4979999999999 78.83500000000001 C 562.718 78.83500000000001 574.0189999999999 85.93900000000001 578.39 95.885 C 578.709 96.613 578.989 97.357 579.232 98.114 C 579.466 98.84 579.6619999999999 99.577 579.822 100.32600000000001 C 580.146 101.84500000000001 580.325 103.40700000000001 580.325 105.004 L 580.325 142.75900000000001 L 3.613 142.75900000000001 L 3.613 105.004 z M 596.387 161.273 L 583.9359999999999 161.273 L 583.9359999999999 105.00299999999999 C 583.9359999999999 104.13699999999999 583.8829999999999 103.28199999999998 583.799 102.43499999999999 C 591.427 107.204 596.387 114.87699999999998 596.387 123.51799999999999 L 596.387 161.273 z M 39.787 127.813 C 40.096 127.83 40.400999999999996 127.86 40.713 127.86 C 41.01 127.86 41.299 127.831 41.592 127.816 C 42.217999999999996 127.784 42.833999999999996 127.71900000000001 43.440999999999995 127.62100000000001 C 49.858 126.581 55.090999999999994 121.965 56.992999999999995 115.87100000000001 C 57.175 115.29 57.31999999999999 114.694 57.43899999999999 114.08800000000001 C 57.55499999999999 113.501 57.635999999999996 112.90100000000001 57.68899999999999 112.295 C 57.73199999999999 111.798 57.76499999999999 111.298 57.76499999999999 110.791 C 57.76499999999999 105.33 55.175 100.471 51.169999999999995 97.347 C 50.318 96.68199999999999 49.40299999999999 96.097 48.43299999999999 95.60199999999999 C 47.21699999999999 94.97999999999999 45.91899999999999 94.502 44.556999999999995 94.18699999999998 C 43.318999999999996 93.89999999999998 42.035999999999994 93.73299999999999 40.712999999999994 93.73299999999999 C 34.102 93.73299999999999 28.369999999999994 97.52099999999999 25.537999999999993 103.03099999999999 C 24.878999999999994 104.31299999999999 24.374999999999993 105.68599999999999 24.05699999999999 107.13 C 23.80599999999999 108.273 23.66599999999999 109.457 23.656999999999993 110.672 C 23.656999999999993 110.712 23.650999999999993 110.75099999999999 23.650999999999993 110.791 C 23.652 119.889 30.811 127.328 39.787 127.813 z M 40.713 97.346 C 41.984 97.346 43.21 97.535 44.376 97.867 C 50.009 99.468 54.153 104.649 54.153 110.791 C 54.153 111.368 54.105 111.93299999999999 54.034 112.491 C 53.952 113.136 53.824 113.764 53.653999999999996 114.378 C 53.456999999999994 115.09 53.202999999999996 115.778 52.897 116.438 C 51.292 119.896 48.272 122.56400000000001 44.577999999999996 123.677 C 43.888 123.885 43.172 124.031 42.44 124.126 C 41.873999999999995 124.199 41.3 124.25 40.714 124.25 C 40.635 124.25 40.559999999999995 124.24 40.482 124.238 C 33.176 124.112 27.266 118.136 27.266 110.792 C 27.266 108.804 27.712 106.921 28.49 105.221 C 29.389999999999997 103.25500000000001 30.747 101.545 32.429 100.224 C 34.103 98.909 36.093 97.983 38.267 97.581 C 39.062 97.433 39.877 97.346 40.713 97.346 z M 100.817 127.813 C 101.12899999999999 127.83 101.437 127.86 101.753 127.86 C 102.047 127.86 102.333 127.831 102.623 127.816 C 103.24900000000001 127.784 103.86500000000001 127.72 104.47200000000001 127.623 C 110.90400000000001 126.587 116.15 121.96900000000001 118.05600000000001 115.873 C 118.23800000000001 115.29100000000001 118.38300000000001 114.696 118.50200000000001 114.09 C 118.61800000000001 113.50200000000001 118.69900000000001 112.903 118.75200000000001 112.296 C 118.79500000000002 111.799 118.828 111.299 118.828 110.79100000000001 C 118.828 105.33000000000001 116.235 100.471 112.224 97.34700000000001 C 111.334 96.653 110.37400000000001 96.049 109.355 95.54 C 107.062 94.394 104.486 93.733 101.75200000000001 93.733 C 99.02000000000001 93.733 96.44400000000002 94.394 94.15200000000002 95.54 C 93.13400000000001 96.049 92.17400000000002 96.653 91.28400000000002 97.34700000000001 C 87.27400000000002 100.47200000000001 84.68100000000003 105.33000000000001 84.68100000000003 110.79100000000001 C 84.682 119.886 91.841 127.323 100.817 127.813 z M 115.097 112.485 C 115.015 113.129 114.887 113.757 114.717 114.369 C 114.52 115.081 114.267 115.769 113.96 116.429 C 112.351 119.896 109.317 122.569 105.606 123.679 C 104.916 123.886 104.201 124.032 103.469 124.125 C 102.90599999999999 124.197 102.335 124.247 101.753 124.247 C 101.671 124.247 101.593 124.236 101.512 124.235 C 94.201 124.105 88.295 118.131 88.295 110.789 C 88.295 103.375 94.33 97.345 101.753 97.345 C 109.176 97.345 115.216 103.375 115.216 110.789 C 115.216 111.366 115.167 111.929 115.097 112.485 z M 161.88 127.814 C 162.185 127.83 162.487 127.86 162.797 127.86 C 163.097 127.86 163.39 127.83 163.686 127.815 C 164.312 127.782 164.928 127.718 165.53400000000002 127.619 C 171.954 126.577 177.19100000000003 121.962 179.09500000000003 115.871 C 179.27700000000002 115.28999999999999 179.42200000000003 114.69399999999999 179.54100000000003 114.088 C 179.65700000000004 113.50099999999999 179.73800000000003 112.901 179.79100000000003 112.294 C 179.83400000000003 111.797 179.86700000000002 111.297 179.86700000000002 110.789 C 179.86700000000002 105.328 177.27400000000003 100.469 173.264 97.345 C 172.37400000000002 96.651 171.41400000000002 96.047 170.39600000000002 95.538 C 168.104 94.392 165.52800000000002 93.731 162.79600000000002 93.731 C 160.067 93.731 157.49300000000002 94.392 155.20300000000003 95.538 C 154.18600000000004 96.047 153.22700000000003 96.651 152.33800000000002 97.345 C 148.33100000000002 100.47 145.73900000000003 105.328 145.73900000000003 110.789 C 145.74 119.892 152.904 127.333 161.88 127.814 z M 176.137 112.487 C 176.055 113.13199999999999 175.927 113.75999999999999 175.757 114.37299999999999 C 175.56 115.085 175.306 115.77199999999999 175 116.43199999999999 C 173.394 119.89199999999998 170.371 122.56099999999999 166.669 123.67499999999998 C 165.98000000000002 123.88299999999998 165.264 124.02899999999998 164.53300000000002 124.12299999999998 C 163.96300000000002 124.19699999999997 163.38700000000003 124.24799999999998 162.79700000000003 124.24799999999998 C 162.72100000000003 124.24799999999998 162.64900000000003 124.23799999999997 162.57300000000004 124.23699999999998 C 155.26300000000003 124.11499999999998 149.35200000000003 118.13699999999999 149.35200000000003 110.78999999999998 C 149.35200000000003 103.37599999999998 155.38300000000004 97.34599999999998 162.79600000000002 97.34599999999998 C 170.21900000000002 97.34599999999998 176.25400000000002 103.37599999999998 176.25400000000002 110.78999999999998 C 176.255 111.366 176.207 111.93 176.137 112.487 z" stroke-linecap="round" />
</g>
</g>
</g>
</svg>